
<svg width="302" height="90" viewBox="0 0 302 90" fill="none" xmlns="http://www.w3.org/2000/svg">
<path fill-rule="evenodd" clip-rule="evenodd" d="M4.295 1.53L3.854 2.592L2.71797e-08 1.223L0.508 -7.78198e-07L4.295 1.53Z" transform="translate(1.62988 20.664)" fill="#51A4E4"/>
<path fill-rule="evenodd" clip-rule="evenodd" d="M4.295 2.233L3.742 3.457L5.43594e-08 1.409L0.636 7.17163e-07L4.295 2.233Z" transform="translate(2.48901 18.071)" fill="#51A4E4"/>
<path fill-rule="evenodd" clip-rule="evenodd" d="M4.47656 9.49565C4.24813 9.86411 4.00582 10.2243 3.78698 10.5988L-3.078e-09 8.29262C0.252316 7.86189 0.529128 7.44647 0.793284 7.02318L4.47656 9.49565ZM6.06074 7.29962L5.66226 7.81311L5.46282 8.06964C5.39811 8.15653 5.33768 8.24673 5.27501 8.33507L1.71177 5.6882C1.78403 5.58662 1.85405 5.48339 1.92815 5.38346L2.15679 5.08803L2.61508 4.49738L6.06074 7.29962ZM7.8352 5.25797C7.54083 5.57533 7.23422 5.8811 6.96026 6.21729L3.64913 3.25306C3.96554 2.86805 4.31605 2.51428 4.65492 2.15016L7.8352 5.25797ZM9.78487 3.38772L9.29739 3.81514C9.1353 3.9583 8.98505 4.1143 8.82807 4.26284L5.7962 1.00608C5.97645 0.83519 6.15058 0.657063 6.33635 0.492177L6.8963 -3.77598e-07L9.78487 3.38772Z" transform="translate(4.17212 8.38757)" fill="#51A4E4"/>
<path fill-rule="evenodd" clip-rule="evenodd" d="M3.758 3.64L3.233 4.02L2.727 4.424L-2.97546e-07 0.901L0.583 0.438L1.185 -1.9455e-07L3.758 3.64Z" transform="translate(12.3081 6.45203)" fill="#51A4E4"/>
<path fill-rule="evenodd" clip-rule="evenodd" d="M3.49568 3.86293C3.11843 4.07168 2.76077 4.31332 2.39904 4.54834L1.88379e-07 0.78864C0.416035 0.518037 0.828804 0.242054 1.26199 -1.07019e-08L3.49568 3.86293Z" transform="translate(14.8203 4.74774)" fill="#51A4E4"/>
<path fill-rule="evenodd" clip-rule="evenodd" d="M3.203 4.055L2.909 4.189L2.622 4.338L2.049 4.636L-3.96729e-07 0.669L0.659999 0.326L0.989999 0.156L1.328 -6.29425e-08L3.203 4.055Z" transform="translate(17.4871 3.289)" fill="#51A4E4"/>
<path fill-rule="evenodd" clip-rule="evenodd" d="M2.88122 4.21215C2.47641 4.35614 2.08161 4.52827 1.68068 4.68405L-9.03711e-07 0.543276C0.461353 0.36246 0.916993 0.166334 1.38345 -3.10925e-08L2.88122 4.21215Z" transform="translate(20.2856 2.09033)" fill="#51A4E4"/>
<path fill-rule="evenodd" clip-rule="evenodd" d="M2.534 4.334L1.296 4.692L3.35693e-07 0.411L1.427 9.53674e-09L2.534 4.334Z" transform="translate(23.1941 1.16302)" fill="#51A4E4"/>
<path fill-rule="evenodd" clip-rule="evenodd" d="M2.16734 4.41966C1.74539 4.49889 1.32139 4.56882 0.900456 4.65343L9.27759e-07 0.27019C0.484831 0.17192 0.972926 0.0897875 1.45959 -2.30269e-08L2.16734 4.41966Z" transform="translate(26.1865 0.523743)" fill="#51A4E4"/>
<path fill-rule="evenodd" clip-rule="evenodd" d="M1.781 4.466L1.139 4.516L0.818 4.541L0.498 4.583L-9.46045e-07 0.134L0.367999 0.087L0.737 0.057L1.476 6.79493e-09L1.781 4.466Z" transform="translate(29.238 0.169006)" fill="#51A4E4"/>
<mask id="mask0" maskUnits="userSpaceOnUse" x="32" y="0" width="2" height="5">
<path d="M1.481 -8.34465e-10H-5.96046e-10V4.495H1.481V-8.34465e-10Z" transform="translate(32.3181 0.0770264)" fill="white"/>
</mask>
<g mask="url(#mask0)">
<path fill-rule="evenodd" clip-rule="evenodd" d="M1.385 4.495L0.74 4.478L0.096 4.495L-5.96046e-10 0.019L0.74 -8.34465e-10L1.481 0.019L1.385 4.495Z" transform="translate(32.3181 0.0770264)" fill="#51A4E4"/>
</g>
<path fill-rule="evenodd" clip-rule="evenodd" d="M1.283 4.583L0.964 4.541L0.643001 4.516L-3.35693e-07 4.466L0.305 6.79493e-09L1.044 0.057L1.414 0.087L1.782 0.134L1.283 4.583Z" transform="translate(35.0979 0.169006)" fill="#51A4E4"/>
<path fill-rule="evenodd" clip-rule="evenodd" d="M1.26689 4.65343C0.845749 4.56882 0.421956 4.49868 3.46094e-07 4.41966L0.707749 1.38247e-08C1.19442 0.0897875 1.68231 0.17192 2.16714 0.27019L1.26689 4.65343Z" transform="translate(37.7637 0.523865)" fill="#51A4E4"/>
<path fill-rule="evenodd" clip-rule="evenodd" d="M1.238 4.692L3.05176e-08 4.334L1.107 9.53674e-09L2.535 0.411L1.238 4.692Z" transform="translate(40.3889 1.16302)" fill="#51A4E4"/>
<path fill-rule="evenodd" clip-rule="evenodd" d="M1.20054 4.68405C0.799815 4.52848 0.405217 4.35635 1.20952e-06 4.21215L1.49797 1.02493e-07C1.96423 0.166541 2.42007 0.36246 2.88122 0.543276L1.20054 4.68405Z" transform="translate(42.9504 2.09027)" fill="#51A4E4"/>
<path fill-rule="evenodd" clip-rule="evenodd" d="M1.153 4.636L0.58 4.338L0.293001 4.189L1.49536e-06 4.055L1.874 -6.29425e-08L2.212 0.156L2.542 0.326L3.202 0.669L1.153 4.636Z" transform="translate(45.428 3.289)" fill="#51A4E4"/>
<path fill-rule="evenodd" clip-rule="evenodd" d="M1.09663 4.54834C0.7349 4.31352 0.377249 4.07188 3.84473e-07 3.86293L2.23369 -3.43652e-08C2.66687 0.242261 3.07964 0.518244 3.49567 0.78864L1.09663 4.54834Z" transform="translate(47.8013 4.74762)" fill="#51A4E4"/>
<path fill-rule="evenodd" clip-rule="evenodd" d="M1.031 4.424L0.524 4.019L-1.77002e-06 3.64L2.572 -1.9455e-07L3.175 0.437L3.758 0.901L1.031 4.424Z" transform="translate(50.052 6.45203)" fill="#51A4E4"/>
<path fill-rule="evenodd" clip-rule="evenodd" d="M0.957004 4.26284C0.800021 4.1143 0.64957 3.9583 0.487483 3.81514L-7.44043e-07 3.38772L2.88877 -3.77598e-07L3.44852 0.492177C3.63429 0.657063 3.80842 0.83519 3.98888 1.00608L0.957004 4.26284ZM2.82475 6.21733C2.5508 5.88114 2.24398 5.57516 1.94981 5.25801L5.1301 2.15C5.46897 2.51432 5.81927 2.86809 6.13589 3.25289L2.82475 6.21733ZM4.5099 8.33505C4.44702 8.24671 4.3866 8.15651 4.3223 8.06962L4.12285 7.81309L3.72417 7.2996L7.16983 4.49736L7.62792 5.08801L7.85696 5.38344C7.93107 5.48337 8.00108 5.5866 8.07335 5.68818L4.5099 8.33505ZM5.99807 10.5988C5.77924 10.2243 5.53692 9.86411 5.30829 9.49565L8.99177 7.02318C9.25593 7.44647 9.53253 7.86189 9.78485 8.29262L5.99807 10.5988Z" transform="translate(52.1604 8.38757)" fill="#51A4E4"/>
<path fill-rule="evenodd" clip-rule="evenodd" d="M0.587001 3.282L-8.8501e-07 2.121L3.891 8.8501e-07L4.567 1.338L0.587001 3.282Z" transform="translate(58.8489 18.095)" fill="#51A4E4"/>
<path fill-rule="evenodd" clip-rule="evenodd" d="M0.474 2.963L1.12915e-06 1.75L4.067 3.05176e-08L4.613 1.399L0.474 2.963Z" transform="translate(60.012 20.916)" fill="#51A4E4"/>
<path fill-rule="evenodd" clip-rule="evenodd" d="M0.361531 2.61336C0.239251 2.19648 0.136365 1.77341 2.46191e-07 1.36109L4.20915 -4.57837e-07C4.36511 0.475625 4.48657 0.962216 4.6262 1.44301L0.361531 2.61336ZM0.939671 5.26678C0.860261 4.83936 0.800245 4.4078 0.692868 3.98617L5.00796 3.0252C5.12942 3.51158 5.20189 4.00789 5.29253 4.50048L0.939671 5.26678Z" transform="translate(60.9407 23.8542)" fill="#51A4E4"/>
<path fill-rule="evenodd" clip-rule="evenodd" d="M0.130999 1.853L0.0819994 1.202L-1.37329e-06 0.554001L4.384 -1.83105e-07L4.477 0.746L4.535 1.495L0.130999 1.853Z" transform="translate(62.0859 29.965)" fill="#51A4E4"/>
<mask id="mask1" maskUnits="userSpaceOnUse" x="62" y="33" width="5" height="2">
<path d="M4.443 1.501V-1.3411e-09H3.63588e-09V1.501H4.443Z" transform="translate(62.2959 33.084)" fill="white"/>
</mask>
<g mask="url(#mask1)">
<path fill-rule="evenodd" clip-rule="evenodd" d="M0.016 1.453L0.025 1.126L0.016 0.799L3.63588e-09 0.146L4.415 -1.3411e-09L4.434 0.75L4.443 1.126L4.434 1.501L0.016 1.453Z" transform="translate(62.2959 33.084)" fill="#51A4E4"/>
</g>
<path fill-rule="evenodd" clip-rule="evenodd" d="M-6.40869e-07 1.302L0.0979989 -6.71387e-07L4.509 0.260001L4.395 1.758L-6.40869e-07 1.302Z" transform="translate(62.168 35.952)" fill="#51A4E4"/>
<path fill-rule="evenodd" clip-rule="evenodd" d="M1.51828 1.28516C1.59177 0.856706 1.67282 0.429075 1.74243 -1.8752e-06L6.1108 0.66844C6.03139 1.16289 5.93952 1.65548 5.85317 2.14911L1.51828 1.28516ZM0.877143 3.92373L1.05332 3.29626L1.14212 2.98241C1.16886 2.87711 1.19091 2.77077 1.2154 2.66485L5.50457 3.73878C5.47579 3.86084 5.44986 3.98332 5.41904 4.10476L5.31798 4.46639L5.11487 5.18966L0.877143 3.92373ZM-1.10869e-06 6.49139C0.157594 6.08672 0.321722 5.68454 0.450534 5.26912L4.62314 6.74027C4.47289 7.21838 4.2861 7.68263 4.10401 8.14853L-1.10869e-06 6.49139Z" transform="translate(60.2488 38.6569)" fill="#51A4E4"/>
<path fill-rule="evenodd" clip-rule="evenodd" d="M-1.61743e-06 1.176L0.294001 0.594999L0.56 1.52588e-06L4.581 1.855L4.274 2.54L3.937 3.209L-1.61743e-06 1.176Z" transform="translate(59.1421 46.448)" fill="#51A4E4"/>
<path fill-rule="evenodd" clip-rule="evenodd" d="M5.16866 1.11945C5.40893 0.758022 5.61735 0.377354 5.8317 -1.55244e-06L9.66768 2.2211C9.42128 2.65556 9.17917 3.0927 8.90481 3.50957L5.16866 1.11945ZM3.63522 3.35174L3.83487 3.09521C3.89918 3.00831 3.9596 2.91811 4.02227 2.82998L4.39605 2.29746L8.01564 4.86448L7.58593 5.47664C7.51346 5.57822 7.44344 5.68146 7.36934 5.78139L7.1405 6.07702L3.63522 3.35174ZM1.90723 5.43411C2.05931 5.27998 2.19609 5.11158 2.33715 4.94752L2.75951 4.45389L6.13352 7.34406L5.64828 7.91196C5.48579 8.10043 5.32758 8.29283 5.15365 8.47116L1.90723 5.43411ZM4.95898e-07 7.3496C0.317437 7.05604 0.62344 6.74985 0.936181 6.45132L4.03725 9.64022C3.67879 9.98447 3.32583 10.3353 2.96104 10.6726L4.95898e-07 7.3496Z" transform="translate(52.6477 48.8681)" fill="#51A4E4"/>
<path fill-rule="evenodd" clip-rule="evenodd" d="M3.05176e-07 0.808001L1.014 -1.49536e-06L3.816 3.462L2.651 4.39L3.05176e-07 0.808001Z" transform="translate(50.5759 57.1411)" fill="#51A4E4"/>
<path fill-rule="evenodd" clip-rule="evenodd" d="M-9.15527e-07 0.707L1.083 -4.27246e-07L3.563 3.705L2.317 4.519L-9.15527e-07 0.707Z" transform="translate(48.356 58.771)" fill="#51A4E4"/>
<path fill-rule="evenodd" clip-rule="evenodd" d="M-1.54102e-06 0.60348C0.379901 0.400734 0.768789 0.214537 1.14236 -1.3626e-06L3.27745 3.91962C2.84692 4.16622 2.40068 4.38283 1.96239 4.61495L-1.54102e-06 0.60348Z" transform="translate(46.0078 60.1903)" fill="#51A4E4"/>
<path fill-rule="evenodd" clip-rule="evenodd" d="M-1.77002e-06 0.495001L0.599001 0.255L0.898001 0.135001L1.191 -1.49536e-06L2.962 4.102L2.624 4.257L2.28 4.396L1.59 4.672L-1.77002e-06 0.495001Z" transform="translate(43.552 61.3911)" fill="#51A4E4"/>
<path fill-rule="evenodd" clip-rule="evenodd" d="M2.61094 0.382115L3.23009 0.203988C3.43729 0.146681 3.63755 0.067238 3.84169 8.46338e-07L5.23147 4.25001C4.9963 4.32759 4.76501 4.41717 4.52658 4.4842L3.81311 4.69046L2.61094 0.382115ZM1.86162e-06 0.999722C0.210877 0.959587 0.423587 0.927936 0.633238 0.881181L1.26035 0.733464L2.25655 5.09561L1.53349 5.26442C1.29199 5.31821 1.04744 5.35628 0.804308 5.40242L1.86162e-06 0.999722Z" transform="translate(38.3975 62.3621)" fill="#51A4E4"/>
<path fill-rule="evenodd" clip-rule="evenodd" d="M1.2207e-06 0.15L0.321 0.124998L0.640001 0.0829984L1.279 -1.80054e-06L1.874 4.437L1.139 4.532L0.771001 4.579L0.400998 4.609L1.2207e-06 0.15Z" transform="translate(35.741 63.586)" fill="#51A4E4"/>
<mask id="mask2" maskUnits="userSpaceOnUse" x="0" y="24" width="34" height="43">
<path d="M0 -9.53674e-10V42.007H32.288V-9.53674e-10H0Z" transform="translate(0.770996 24.925)" fill="white"/>
</mask>
<g mask="url(#mask2)">
<path fill-rule="evenodd" clip-rule="evenodd" d="M32.2878 42.0073C14.4843 42.0073 0 27.3283 0 9.28535C0 6.12748 0.445431 3.00354 1.32384 2.64368e-09L2.88959 0.470453C2.05588 3.3211 1.63311 6.28699 1.63311 9.28535C1.63311 26.4157 15.3847 40.3522 32.2878 40.3522V42.0073Z" transform="translate(0.770996 24.9249)" fill="#51A4E4"/>
</g>
<path fill-rule="evenodd" clip-rule="evenodd" d="M26.3927 0.206884C11.9523 0.206884 0.204139 12.1128 0.204139 26.7474C0.204139 41.3819 11.9523 53.2881 26.3927 53.2881C40.8331 53.2881 52.5813 41.3819 52.5813 26.7474C52.5813 12.1128 40.8331 0.206884 26.3927 0.206884ZM26.3927 53.4949C11.8397 53.4949 -1.8089e-07 41.4961 -1.8089e-07 26.7474C-1.8089e-07 11.9988 11.8397 6.96826e-08 26.3927 6.96826e-08C40.9458 6.96826e-08 52.7854 11.9988 52.7854 26.7474C52.7854 41.4961 40.9458 53.4949 26.3927 53.4949Z" transform="translate(6.66602 7.46289)" fill="#51A4E4"/>
<path fill-rule="evenodd" clip-rule="evenodd" d="M23.9593 1.42048C11.521 1.42048 1.40163 11.6759 1.40163 24.2814C1.40163 36.887 11.521 47.1424 23.9593 47.1424C36.3976 47.1424 46.517 36.887 46.517 24.2814C46.517 11.6759 36.3976 1.42048 23.9593 1.42048ZM23.9593 48.5629C10.7482 48.5629 3.8457e-07 37.6702 3.8457e-07 24.2814C3.8457e-07 10.8925 10.7482 -1.26587e-07 23.9593 -1.26587e-07C37.1704 -1.26587e-07 47.9186 10.8925 47.9186 24.2814C47.9186 37.6702 37.1704 48.5629 23.9593 48.5629Z" transform="translate(9.09937 9.92896)" fill="#51A4E4"/>
<ellipse cx="3.75" cy="26" rx="3.75" ry="26" transform="translate(52.521 9.07703)" fill="url(#paint0_radial)"/>
<g style="mix-blend-mode:lighten" transform="translate(55.021 22.7612)">
<path d="M2.5 12.3158C2.5 15.0526 1.25 16.4211 1.25 24.6316C1.25 16.4211 0 15.0526 0 12.3158C0 10.2632 1.25 8.89474 1.25 0C1.25 8.89474 2.5 10.6024 2.5 12.3158Z" fill="url(#paint1_radial)"/>
</g>
<g style="mix-blend-mode:lighten" filter="url(#filter0_f)">
<path d="M2.5 10.9474C2.5 13.3801 1.25 21.8947 1.25 21.8947C1.25 21.8947 0 13.3801 0 10.9474C0 9.12281 1.25 0 1.25 0C1.25 0 2.5 9.42435 2.5 10.9474Z" transform="translate(55.021 24.1296)" fill="url(#paint2_radial)"/>
</g>
<g style="mix-blend-mode:lighten" transform="translate(55.021 28.2349)">
<path d="M2.5 7.52632C2.5 10.1715 1.25 15.7368 1.25 15.7368C1.25 15.7368 0 10.1715 0 7.52632C0 4.88116 1.25 0 1.25 0C1.25 0 2.5 4.88116 2.5 7.52632Z" fill="url(#paint3_radial)"/>
</g>
<g style="mix-blend-mode:lighten" transform="translate(55.021 28.5507)">
<path d="M2.5 6.56979C2.5 8.54892 1.25 13.7368 1.25 13.7368C1.25 13.7368 0 8.54892 0 6.56979C0 4.59067 1.25 0 1.25 0C1.25 0 2.5 4.59067 2.5 6.56979Z" fill="url(#paint4_radial)"/>
</g>
<mask id="mask3" maskUnits="userSpaceOnUse" x="18" y="22" width="29" height="23">
<path d="M28 0H0V22H28V0Z" transform="translate(18.771 22.923)" fill="white"/>
</mask>
<g mask="url(#mask3)">
<path fill-rule="evenodd" clip-rule="evenodd" d="M7.25655 12.5953V22H10.7845V12.5953L9.08283 11.0221L7.25655 12.5953ZM0.0234274 22H3.58033V14.9752L0.0234274 18.1473V22ZM14.531 15.1479L14.3902 22H17.9867L18.1115 13.0043L14.531 15.1479ZM21.7116 22H25.2748V7.12003L21.7108 10.5637V22H21.7116ZM19.8845 0L23.2661 3.17039L14.8174 10.1088L9.08184 5.44976L0 12.5953V15.6829L9.08283 8.53731L14.8182 13.1956L25.0229 4.81604L28 7.4603V0H19.8845Z" transform="translate(18.771 22.923)" fill="#38E5ED"/>
</g>
<ellipse cx="3.75" cy="26" rx="3.75" ry="26" transform="translate(57.771 61.827) rotate(90)" fill="url(#paint5_radial)"/>
<g style="mix-blend-mode:lighten" transform="translate(44.0867 64.327) rotate(90)">
<path d="M2.5 12.3158C2.5 15.0526 1.25 24.6316 1.25 24.6316C1.25 24.6316 0 15.0526 0 12.3158C0 10.2632 1.25 0 1.25 0C1.25 0 2.5 10.6024 2.5 12.3158Z" fill="url(#paint6_radial)"/>
</g>
<g style="mix-blend-mode:lighten" filter="url(#filter1_f)">
<path d="M2.5 10.9474C2.5 13.3801 1.25 14.5965 1.25 21.8947C1.25 14.5965 0 13.3801 0 10.9474C0 9.12281 1.25 7.90643 1.25 0C1.25 7.90643 2.5 9.42435 2.5 10.9474Z" transform="translate(42.7183 64.327) rotate(90)" fill="url(#paint7_radial)"/>
</g>
<g style="mix-blend-mode:lighten" transform="translate(38.613 64.327) rotate(90)">
<path d="M2.5 7.52632C2.5 10.1715 1.25 15.7368 1.25 15.7368C1.25 15.7368 0 10.1715 0 7.52632C0 4.88116 1.25 0 1.25 0C1.25 0 2.5 4.88116 2.5 7.52632Z" fill="url(#paint8_radial)"/>
</g>
<g style="mix-blend-mode:lighten" transform="translate(38.771 64.077) rotate(90)">
<path d="M3 6.69565C3 8.71269 1.5 14 1.5 14C1.5 14 0 8.71269 0 6.69565C0 4.67861 1.5 0 1.5 0C1.5 0 3 4.67861 3 6.69565Z" fill="url(#paint9_radial)"/>
</g>
<line y1="-0.5" x2="262" y2="-0.5" transform="translate(6.771 84.077)" stroke="url(#paint10_linear)"/>
<path d="M0 34H262L296 0M269 35L298.5 5.5" transform="translate(1.771 54.577)" stroke="#00BBEC"/>
<rect width="5" height="5" transform="translate(296.771 51.077)" fill="#00BBEC"/>
<defs>
<filter id="filter0_f" x="53.7131" y="22.8218" width="5.11574" height="24.5105" filterUnits="userSpaceOnUse" color-interpolation-filters="sRGB">
<feFlood flood-opacity="0" result="BackgroundImageFix"/>
<feBlend mode="normal" in="SourceGraphic" in2="BackgroundImageFix" result="shape"/>
<feGaussianBlur stdDeviation="0.653935" result="effect1_foregroundBlur"/>
</filter>
<filter id="filter1_f" x="19.5156" y="63.0192" width="24.5105" height="5.11574" filterUnits="userSpaceOnUse" color-interpolation-filters="sRGB">
<feFlood flood-opacity="0" result="BackgroundImageFix"/>
<feBlend mode="normal" in="SourceGraphic" in2="BackgroundImageFix" result="shape"/>
<feGaussianBlur stdDeviation="0.653935" result="effect1_foregroundBlur"/>
</filter>
<radialGradient id="paint0_radial" cx="0.5" cy="0.5" r="0.5" gradientUnits="userSpaceOnUse" gradientTransform="translate(7.02417) scale(6.54833 52) rotate(90)">
<stop stop-color="#0469FF"/>
<stop offset="1" stop-color="#0469FF" stop-opacity="0"/>
</radialGradient>
<radialGradient id="paint1_radial" cx="0.5" cy="0.5" r="0.5" gradientUnits="userSpaceOnUse" gradientTransform="translate(2.05005 5.47368) scale(1.6001 13.6842) rotate(89.9999)">
<stop stop-color="#25FDFF"/>
<stop offset="0.440685" stop-color="#42FFFF"/>
<stop offset="1" stop-color="#21FFFF" stop-opacity="0"/>
</radialGradient>
<radialGradient id="paint2_radial" cx="0.5" cy="0.5" r="0.5" gradientUnits="userSpaceOnUse" gradientTransform="translate(2.27777 2.43275) scale(2.05555 17.0292) rotate(90)">
<stop stop-color="#70FFFF"/>
<stop offset="0.179661" stop-color="#44FFFF"/>
<stop offset="1" stop-color="#69FFFF" stop-opacity="0"/>
</radialGradient>
<radialGradient id="paint3_radial" cx="0.5" cy="0.5" r="0.5" gradientUnits="userSpaceOnUse" gradientTransform="translate(2.5 2.73684) scale(2.5 9.57895) rotate(90)">
<stop stop-color="#46FFFF"/>
<stop offset="1" stop-color="#D0FFFF" stop-opacity="0"/>
</radialGradient>
<radialGradient id="paint4_radial" cx="0.5" cy="0.5" r="0.5" gradientUnits="userSpaceOnUse" gradientTransform="translate(2.11148 2.98627) scale(1.72296 7.16705) rotate(90)">
<stop stop-color="white"/>
<stop offset="0.297305" stop-color="white"/>
<stop offset="1" stop-color="white" stop-opacity="0"/>
</radialGradient>
<radialGradient id="paint5_radial" cx="0.5" cy="0.5" r="0.5" gradientUnits="userSpaceOnUse" gradientTransform="translate(7.02417) scale(6.54833 52) rotate(90)">
<stop stop-color="#0469FF"/>
<stop offset="1" stop-color="#0469FF" stop-opacity="0"/>
</radialGradient>
<radialGradient id="paint6_radial" cx="0.5" cy="0.5" r="0.5" gradientUnits="userSpaceOnUse" gradientTransform="translate(2.05005 5.47368) scale(1.6001 13.6842) rotate(89.9999)">
<stop stop-color="#25FDFF"/>
<stop offset="0.440685" stop-color="#42FFFF"/>
<stop offset="1" stop-color="#21FFFF" stop-opacity="0"/>
</radialGradient>
<radialGradient id="paint7_radial" cx="0.5" cy="0.5" r="0.5" gradientUnits="userSpaceOnUse" gradientTransform="translate(2.27777 2.43275) scale(2.05555 17.0292) rotate(90)">
<stop stop-color="#70FFFF"/>
<stop offset="0.179661" stop-color="#44FFFF"/>
<stop offset="1" stop-color="#69FFFF" stop-opacity="0"/>
</radialGradient>
<radialGradient id="paint8_radial" cx="0.5" cy="0.5" r="0.5" gradientUnits="userSpaceOnUse" gradientTransform="translate(2.5 2.73684) scale(2.5 9.57895) rotate(90)">
<stop stop-color="#46FFFF"/>
<stop offset="1" stop-color="#D0FFFF" stop-opacity="0"/>
</radialGradient>
<radialGradient id="paint9_radial" cx="0.5" cy="0.5" r="0.5" gradientUnits="userSpaceOnUse" gradientTransform="translate(2.53377 3.04348) scale(2.06755 7.30435) rotate(90)">
<stop stop-color="white"/>
<stop offset="0.297305" stop-color="white"/>
<stop offset="1" stop-color="white" stop-opacity="0"/>
</radialGradient>
<linearGradient id="paint10_linear" x2="1" gradientUnits="userSpaceOnUse" gradientTransform="translate(223.001 24497) scale(187 48994) rotate(179.999)">
<stop stop-color="#00BBEC"/>
<stop offset="0.467124" stop-color="#3CEBF6"/>
<stop offset="1" stop-color="#00BBEC"/>
</linearGradient>
</defs>
</svg>
